<?xml version="1.0" encoding="UTF-8"?>
<svg width="131px" height="51px" viewBox="0 0 131 51" version="1.1" xmlns="http://www.w3.org/2000/svg" xmlns:xlink="http://www.w3.org/1999/xlink">
    <title>Brand/SND Logo</title>
    <g id="Symbols" stroke="none" stroke-width="1" fill="none" fill-rule="evenodd">
        <g id="Brand/SND-Logo">
            <path d="M21.7015205,7.54675153 L21.7015205,1.58955189 C19.0347821,0.704679885 15.8778391,0 12.1403697,0 C4.89107557,0 0.436716045,4.03622297 0.436716045,9.69578385 C0.436716045,16.1010907 5.54614964,17.8121114 11.9656913,19.3037643 C16.2017329,20.2689585 17.5555206,21.1463895 17.5555206,22.594201 C17.5555206,24.2613401 16.0707341,25.1388113 13.4504778,25.1388113 C9.82583075,25.1388113 6.68157933,24.7439573 2.79489461,22.9012918 L0,28.7802205 C4.89107557,31.2370676 7.7733294,31.7635262 13.1884802,31.7635262 C20.5250936,31.7635262 25.3725296,28.0782355 25.3725296,21.8922562 C25.3725296,16.1010907 20.9618096,13.8636114 14.0618723,12.3719183 C9.73851157,11.4067241 8.25372506,10.6168552 8.25372506,9.03776085 C8.25372506,7.63362987 9.52015354,6.62447357 11.9220117,6.62447357 C14.6869191,6.62447357 18.8595432,7.46188426 21.6123596,8.54183031 C21.6324578,8.54947239 21.6551584,8.5470591 21.6730146,8.53499267 C21.6908308,8.52252401 21.7015205,8.50241329 21.7015205,8.4806937 C21.7015205,8.22488525 21.7015205,7.54675153 21.7015205,7.54675153 Z M54.8573485,7.41442294 L54.8573485,31.3247906 L51.145182,31.3247906 L35.1799036,14.39007 L35.1799036,31.3247906 L27.4502138,31.3247906 L27.4502138,0.394974684 L31.1185405,0.394974684 L47.083899,17.3294942 L47.083899,0.394974684 L64.1838064,0.394974684 C72.7431686,0.394974684 79.6866655,7.32674017 79.6866655,15.8817229 C79.6866655,24.0858539 73.2672439,31.3247906 65.187917,31.3247906 L59.5888393,31.3247906 C59.5888393,31.3247906 59.5888393,25.3807836 59.5888393,24.4321606 C59.5888393,24.3620546 59.6456909,24.3052217 59.7153541,24.3052217 C60.4872541,24.3052217 64.532923,24.3052217 64.532923,24.3052217 C68.6814852,24.3052217 72.0441347,20.4005631 72.0441347,15.8817229 C72.0441347,11.2312379 68.5505665,7.41442294 64.1838064,7.41442294 L54.8573485,7.41442294 Z" id="Fill-1" fill="#FFFFFF"></path>
            <path d="M129.380932,1.55978801 C128.022099,0.19467184 125.818501,0.19467184 124.459669,1.55978801 C117.408074,8.64399281 97.6317393,28.5116216 97.6317393,28.5116216 C97.6317393,28.5116216 98.3888259,29.2722898 99.2508076,30.1382577 C100.61004,31.503575 102.813639,31.503575 104.172471,30.1382577 C111.224066,23.0542138 131,3.18634363 131,3.18634363 C131,3.18634363 130.242913,2.42575593 129.380932,1.55978801 Z" id="Fill-2" fill="#5BD0D2"></path>
            <path d="M114.736851,1.56019022 C113.378019,0.19467184 111.174421,0.19467184 109.815588,1.56019022 C104.080387,7.32151138 90.3098994,21.1558416 90.3098994,21.1558416 C90.3098994,21.1558416 91.0669859,21.9165097 91.9289676,22.7824776 C93.2882003,24.1477949 95.4913983,24.1477949 96.850631,22.7824776 C102.585432,17.0209554 116.35632,3.18674585 116.35632,3.18674585 C116.35632,3.18674585 115.598833,2.42615814 114.736851,1.56019022 Z" id="Fill-3" fill="#5BD0D2"></path>
            <path d="M100.092771,1.56019022 C98.7339389,0.195074055 96.5303405,0.195074055 95.1715082,1.56019022 C90.9997249,5.75126579 82.9880594,13.8000615 82.9880594,13.8000615 C82.9880594,13.8000615 83.745146,14.5607297 84.6071277,15.4266976 C85.9663603,16.7920149 88.1695583,16.7920149 89.528791,15.4266976 C93.7001739,11.2358231 101.71224,3.18674585 101.71224,3.18674585 C101.71224,3.18674585 100.954753,2.42615814 100.092771,1.56019022 Z" id="Fill-4" fill="#5BD0D2"></path>
            <path d="M3.82586957,42.8793688 L5.0915774,47.1853168 L2.56016173,47.1853168 L3.82586957,42.8793688 Z M4.61694697,40.7408745 L3.13548348,40.7408745 L0,50.8555245 L1.53899567,50.8555245 L2.25812783,48.3702006 L5.40798434,48.3702006 L6.14152957,50.8555245 L7.76680348,50.8555245 L4.61694697,40.7408745 Z" id="Fill-5" fill="#FFFFFF"></path>
            <polygon id="Fill-6" fill="#FFFFFF" points="22.4518409 50.8555245 23.8757322 50.8555245 23.8757322 40.7408745 22.4518409 40.7408745 22.4518409 47.8644561 18.9136322 40.7408745 17.4034226 40.7408745 17.4034226 50.8555245 18.8273139 50.8555245 18.8273139 43.558508"></polygon>
            <path d="M37.3382209,42.8793688 L38.6039288,47.1853168 L36.0725131,47.1853168 L37.3382209,42.8793688 Z M38.1292983,40.7408745 L36.6478348,40.7408745 L33.5123514,50.8555245 L35.051307,50.8555245 L35.7704792,48.3702006 L38.9203357,48.3702006 L39.6538809,50.8555245 L41.2790347,50.8555245 L38.1292983,40.7408745 Z" id="Fill-7" fill="#FFFFFF"></path>
            <polygon id="Fill-8" fill="#FFFFFF" points="50.915774 50.8555245 55.9499393 50.8555245 55.9499393 49.4538873 52.4547697 49.4538873 52.4547697 40.7408745 50.915774 40.7408745"></polygon>
            <polygon id="Fill-9" fill="#FFFFFF" points="66.5787783 50.8555245 68.117774 50.8555245 68.117774 46.9541239 71.1237 40.7408745 69.4698001 40.7408745 67.3843088 45.3936119 65.3132306 40.7408745 63.5728523 40.7408745 66.5787783 46.9541239"></polygon>
            <polygon id="Fill-10" fill="#FFFFFF" points="86.4415913 42.156911 86.4415913 40.7408745 80.3288478 40.7408745 80.3288478 42.156911 82.6013087 42.156911 82.6013087 50.8555245 84.1547174 50.8555245 84.1547174 42.156911"></polygon>
            <polygon id="Fill-11" fill="#FFFFFF" points="96.4378566 50.8555245 98.0343845 50.8555245 98.0343845 40.7408745 96.4378566 40.7408745"></polygon>
            <path d="M113.381222,47.7488596 C113.381222,48.9192637 112.777074,49.6128425 111.770161,49.6128425 C110.748835,49.6128425 110.144687,48.9192637 110.144687,47.7488596 L110.144687,43.8474992 C110.144687,42.6770951 110.748835,41.9835163 111.770161,41.9835163 C112.777074,41.9835163 113.381222,42.6770951 113.381222,43.8474992 L113.381222,44.2087281 L114.876979,44.2087281 L114.876979,43.8330597 C114.876979,41.8101216 113.65427,40.5963588 111.784574,40.5963588 C109.900465,40.5963588 108.605691,41.8534803 108.605691,43.8764184 L108.605691,47.7777788 C108.605691,49.8006767 109.857226,51 111.741335,51 C113.61103,51 114.876979,49.7573582 114.876979,47.7344201 L114.876979,47.243115 L113.381222,47.243115 L113.381222,47.7488596 Z" id="Fill-12" fill="#FFFFFF"></path>
            <path d="M127.505231,46.2027871 C128.6847,46.8963257 129.3461,47.4598685 129.3461,48.3702006 C129.3461,49.1648961 128.785191,49.6850802 127.922409,49.6850802 C126.627635,49.6850802 126.066726,48.0522903 126.066726,48.0522903 L124.801178,48.5435953 C124.801178,48.5435953 125.448165,51 127.950835,51 C129.605135,51 130.885096,50.0029906 130.885096,48.2401647 C130.885096,46.8240879 129.849357,45.841518 128.554983,45.0757015 C127.447578,44.411042 126.814604,43.8908579 126.814604,43.0383239 C126.814604,42.3736644 127.347087,41.9112786 128.094966,41.9112786 C129.331687,41.9112786 129.734452,43.2261581 129.734452,43.2261581 L131,42.7348933 C131,42.7348933 130.439091,40.5963588 128.051726,40.5963588 C126.483904,40.5963588 125.261196,41.6222874 125.261196,43.1683599 C125.261196,44.4254815 126.210857,45.4369304 127.505231,46.2027871 Z" id="Fill-13" fill="#FFFFFF"></path>
        </g>
    </g>
</svg>